<svg aria-hidden="true" style="position: absolute; width: 0; height: 0; overflow: hidden;" version="1.1" xmlns="http://www.w3.org/2000/svg" xmlns:xlink="http://www.w3.org/1999/xlink">
<defs>
<symbol id="icon-star" viewBox="0 0 32 32">
<path fill="#ffc531" style="fill: var(--color1, #ffc531); stroke: var(--color1, #ffc531)" stroke="#ffc531" stroke-linejoin="miter" stroke-linecap="butt" stroke-miterlimit="4" stroke-width="2.4" d="M12.4 9.394l3.6-6.822 3.6 6.822c0.318 0.603 0.899 1.025 1.571 1.141l7.601 1.315-5.376 5.532c-0.475 0.489-0.697 1.171-0.6 1.846l1.098 7.635-6.922-3.404c-0.612-0.301-1.329-0.301-1.941 0l-6.922 3.404 1.098-7.635c0.097-0.675-0.125-1.357-0.6-1.846l-5.376-5.532 7.601-1.315c0.672-0.116 1.252-0.538 1.571-1.141zM29.035 11.579v0zM7.767 27.031c0 0 0 0 0 0h-0z"></path>
</symbol>
<symbol id="icon-user" viewBox="0 0 32 32">
<path fill="#fbfbfb" style="fill: var(--color2, #fbfbfb)" d="M16 5.333c1.415 0 2.771 0.562 3.771 1.562s1.562 2.357 1.562 3.771-0.562 2.771-1.562 3.771c-1 1-2.357 1.562-3.771 1.562s-2.771-0.562-3.771-1.562c-1-1-1.562-2.357-1.562-3.771s0.562-2.771 1.562-3.771c1-1 2.357-1.562 3.771-1.562zM16 18.667c5.893 0 10.667 2.387 10.667 5.333v2.667h-21.333v-2.667c0-2.947 4.773-5.333 10.667-5.333z"></path>
</symbol>
<symbol id="icon-users" viewBox="0 0 32 32">
<path fill="#fbfbfb" style="fill: var(--color2, #fbfbfb)" d="M19.041 22.529l-0.548 2.044-14.306-3.833 0.548-2.044c0 0 1.095-4.087 8.248-2.171s6.058 6.004 6.058 6.004zM18.066 11.863c0.189-0.707 0.165-1.455-0.070-2.149s-0.671-1.302-1.252-1.747c-0.581-0.446-1.281-0.709-2.012-0.757s-1.459 0.122-2.093 0.488c-0.634 0.366-1.146 0.912-1.469 1.569s-0.446 1.395-0.35 2.121c0.096 0.726 0.404 1.407 0.887 1.958s1.118 0.946 1.825 1.135c0.949 0.254 1.959 0.121 2.81-0.37s1.471-1.3 1.725-2.248zM20.075 18.425c0.498 0.654 0.846 1.41 1.021 2.214s0.171 1.636-0.011 2.438l-0.548 2.044 4.087 1.095 0.548-2.044c0 0 0.994-3.709-5.097-5.747zM21.579 8.971c-0.702-0.192-1.447-0.166-2.134 0.074 0.388 1.034 0.443 2.163 0.158 3.229s-0.898 2.017-1.751 2.718c0.475 0.552 1.106 0.947 1.811 1.131 0.948 0.254 1.959 0.121 2.81-0.37s1.471-1.3 1.725-2.248c0.254-0.949 0.121-1.959-0.37-2.81s-1.3-1.471-2.248-1.725z"></path>
</symbol>
<symbol id="icon-arrow" viewBox="0 0 32 32">
<path fill="#fbfbfb" style="fill: var(--color2, #fbfbfb)" d="M26.020 3.149c-0.145-1.029-1.096-1.747-2.126-1.602l-16.776 2.358c-1.029 0.145-1.747 1.097-1.602 2.126s1.097 1.747 2.126 1.602l14.912-2.096 2.096 14.912c0.145 1.029 1.096 1.747 2.126 1.602s1.747-1.097 1.602-2.126l-2.358-16.776zM5.268 31.604l20.391-27.060-3.007-2.266-20.391 27.060 3.007 2.266z"></path>
</symbol>
<symbol id="icon-clock" viewBox="0 0 32 32">
<path stroke-linejoin="round" stroke-linecap="round" stroke-miterlimit="4" stroke-width="2.4" d="M15.999 29.333c7.364 0 13.333-5.969 13.333-13.333s-5.97-13.333-13.333-13.333c-7.364 0-13.333 5.97-13.333 13.333s5.97 13.333 13.333 13.333z"></path>
<path stroke-linejoin="round" stroke-linecap="round" stroke-miterlimit="4" stroke-width="2.4" d="M16 8v8l5.333 2.667"></path>
</symbol>
<symbol id="icon-question" viewBox="0 0 32 32">
<path fill="#fbfbfb" style="fill: var(--color2, #fbfbfb)" d="M11.294 10c0-2.206 1.688-4 3.765-4h1.882c2.076 0 3.765 1.794 3.765 4v0.225c0 1.363-0.653 2.631-1.729 3.362l-2.482 1.694c-0.729 0.498-1.328 1.182-1.744 1.99s-0.633 1.714-0.633 2.635v0.094c0 1.106 0.841 2 1.882 2s1.882-0.894 1.882-2v-0.088c0-0.512 0.247-0.987 0.647-1.262l2.482-1.694c2.153-1.475 3.459-4.006 3.459-6.731v-0.225c0-4.419-3.371-8-7.529-8h-1.882c-4.159 0-7.529 3.581-7.529 8 0 1.106 0.841 2 1.882 2s1.882-0.894 1.882-2zM16 30c0.624 0 1.223-0.263 1.664-0.732s0.689-1.105 0.689-1.768c0-0.663-0.248-1.299-0.689-1.768s-1.040-0.732-1.664-0.732-1.223 0.263-1.664 0.732c-0.441 0.469-0.689 1.105-0.689 1.768s0.248 1.299 0.689 1.768 1.040 0.732 1.664 0.732z"></path>
</symbol>
<symbol id="icon-check" viewBox="0 0 32 32">
<path fill="#fc832c" style="fill: var(--color3, #fc832c)" d="M8 13.333l-2.667 2.667 8 8 13.333-13.333-2.667-2.667-10.667 10.667-5.333-5.333z"></path>
</symbol>
<symbol id="icon-heart-2" viewBox="0 0 32 32">
<path  stroke-linejoin="round" stroke-linecap="round" stroke-miterlimit="4" stroke-width="2.4615" d="M27.787 6.147c-0.681-0.681-1.49-1.222-2.379-1.591s-1.844-0.559-2.807-0.559-1.917 0.19-2.807 0.559c-0.89 0.369-1.699 0.909-2.38 1.591l-1.413 1.413-1.413-1.413c-1.376-1.376-3.241-2.148-5.187-2.148s-3.811 0.773-5.187 2.148c-1.376 1.376-2.148 3.241-2.148 5.187s0.773 3.811 2.148 5.187l11.787 11.787 11.787-11.787c0.681-0.681 1.222-1.49 1.591-2.38s0.559-1.844 0.559-2.807-0.19-1.917-0.559-2.807c-0.369-0.89-0.909-1.699-1.591-2.38z"></path>
</symbol>
<symbol id="icon-menu" viewBox="0 0 32 32">
<path d="M12 2h20v4h-20v-4zM12 14h20v4h-20v-4zM12 26h20v4h-20v-4zM0 4c0-2.209 1.791-4 4-4s4 1.791 4 4c0 2.209-1.791 4-4 4s-4-1.791-4-4zM0 16c0-2.209 1.791-4 4-4s4 1.791 4 4c0 2.209-1.791 4-4 4s-4-1.791-4-4zM0 28c0-2.209 1.791-4 4-4s4 1.791 4 4c0 2.209-1.791 4-4 4s-4-1.791-4-4z"></path>
</symbol>
<symbol id="icon-close" viewBox="0 0 32 32">
<path d="M24 8L8 24" stroke="#191A15" stroke-width="2" stroke-linecap="round" stroke-linejoin="round"/>
<path d="M8 8L24 24" stroke="#191A15" stroke-width="2" stroke-linecap="round" stroke-linejoin="round"/>
</symbol>
<symbol id="icon-eye-hidden" viewBox="0 0 32 32">
<path d="M8.109 20.891c-3.492-2.061-5.109-4.891-5.109-4.891s4-7 13-7c1.305 0 2.504 0.147 3.601 0.399l-0.85 0.85c-0.855-0.158-1.772-0.248-2.752-0.248-8 0-11.8 6-11.8 6s1.515 2.392 4.645 4.155l-0.736 0.736zM12.399 22.601c1.097 0.252 2.297 0.399 3.601 0.399 9 0 13-7 13-7s-1.617-2.83-5.109-4.891l-0.736 0.736c3.13 1.763 4.645 4.155 4.645 4.155s-3.8 6-11.8 6c-0.98 0-1.897-0.090-2.752-0.248l-0.85 0.85zM19.899 15.101c0.066 0.289 0.101 0.59 0.101 0.899 0 2.209-1.791 4-4 4-0.309 0-0.61-0.035-0.899-0.101l0.899-0.899c0.768 0 1.536-0.293 2.121-0.879s0.879-1.354 0.879-2.121l0.899-0.899zM16.899 12.101c-0.289-0.066-0.59-0.101-0.899-0.101-2.209 0-4 1.791-4 4 0 0.309 0.035 0.61 0.101 0.899l0.899-0.899c0-0.768 0.293-1.536 0.879-2.121s1.354-0.879 2.121-0.879l0.899-0.899zM24 7l-17 17 1 1 17-17-1-1z"></path>
</symbol>
<symbol id="icon-eye" viewBox="0 0 32 32">
<path d="M16 9v0 0c9 0 13 7 13 7s-4 7-13 7c-9 0-13-7-13-7s4-7 13-7zM16 10c-8 0-11.8 6-11.8 6s3.8 6 11.8 6c8 0 11.8-6 11.8-6s-3.8-6-11.8-6v0 0zM16 20v0 0c-2.209 0-4-1.791-4-4s1.791-4 4-4c2.209 0 4 1.791 4 4s-1.791 4-4 4zM16 19c1.657 0 3-1.343 3-3s-1.343-3-3-3c-1.657 0-3 1.343-3 3s1.343 3 3 3v0 0zM16 17c0.552 0 1-0.448 1-1s-0.448-1-1-1c-0.552 0-1 0.448-1 1s0.448 1 1 1v0 0z"></path>
</symbol>
<symbol id="icon-circle" viewBox="0 0 32 32">
<circle cx="7" cy="7" r="7" fill="#FBFBFB"/>
<circle cx="7.00065" cy="7.00009" r="4.66667" fill="#38CD3E"/>
</symbol>
</defs>
</svg>
